<?xml version="1.0" encoding="UTF-8"?>
<svg id="Layer_1" xmlns="http://www.w3.org/2000/svg" version="1.1" viewBox="0 0 218 47">
  <!-- Generator: Adobe Illustrator 29.1.0, SVG Export Plug-In . SVG Version: 2.1.0 Build 142)  -->
  <defs>
    <style>
      .st0 {
        fill: #9e9e9e;
      }

      .st1 {
        fill: #347489;
        fill-rule: evenodd;
      }
    </style>
  </defs>
  <g>
    <path class="st1" d="M26.4,5.6h0s0,0,0,0h0s0,0,0,0c0,0,0,0,0,0h0s0,0,0,0h0s0,0,0,0h0s0,0,0,0h0s0,0,0,0h0s0,0,0,0h0s-.3.3-.3.3h.2ZM26.6,5.3c.2,0,.3-.1.4-.3h0s0,0,0,0l-.4.3ZM34,35.1c5-6.1,8.2-13,8.8-21.1.2-2.4,0-4.8-.8-7-.3-.7-.5-1.5-1.1-2.1-.7-.6-1.5-1.1-2.4-1.6-1.8-.9-3.8-1.3-5.8-1.1-2,.2-3.7,1.1-5.2,2.3h0c0,0,0,0,0,.2,0,0,.1,0,.2,0,1.2-.6,2.4-1,3.7-1.2,2.7-.4,4.9.3,6.6,2.6,1.4,1.8,2,4,2.2,6.3.2,2.4,0,4.7-.5,7-2,8.6-6.2,15.6-13.6,20.5,0,0,0,0,0,0,.4.2.8.3,1.3.5.2.1.4,0,.7,0,2.3-1.4,4.3-3.2,6-5.3" vector-effect="non-scaling-stroke"/>
    <path class="st1" d="M30.6,34c4.2-5.1,6.7-11,7.1-17.7.2-2.7-.2-5.3-1.5-7.7-1.3-2.2-3.2-3.5-5.7-3.6-1.6,0-3,.4-4.4,1,0-.4-.2-.2-.3,0-2.1,1.5-4,3.3-5.6,5.4-2.7,3.5-4.7,7.4-5.9,11.6-.5,1.5-.8,3.1-1,4.6,0,.3,0,.3.3.4,1.1,0,1.1,0,1.2-1.1v-.3c1-5.1,3-9.9,5.8-14.2,1.3-2.1,2.9-4,4.7-5.7.2.1-.1.2,0,.4,0,0,0,0,0,0h.3c1.4-.5,2.8-.6,4.2-.2,2.4.6,3.9,2.3,4.8,4.6,1,2.7,1,5.5.6,8.3-.6,3.9-2.1,7.7-4.2,11-2.1,3.2-4.6,6-7.9,7.8,0,0-.1,0,0,.1h0c.3.2.6.3.9.4.4.2.6.1,1,0,2.2-1.3,4.2-3.1,5.8-5.1M38.1,35.8c4.4-5.3,7.6-11.6,9.4-18.3.2-.7.2-1.4,0-2-.5-1.5-1.1-2.9-1.8-4.2,0,1.4-.2,2.8-.4,4.2-.8,4.9-2.5,9.6-5,13.9-2.1,3.7-4.7,7-7.9,9.8-.9.8-2,1.5-3,2.1.5.2,1,.4,1.5.6.3.1.5,0,.8,0,2.5-1.6,4.7-3.6,6.6-5.9" vector-effect="non-scaling-stroke"/>
    <path class="st1" d="M27.9,29.4c0,.1-.1.2-.2.3-.2,1.5-.7,2.9-1.4,4.3,0,0,.2,0,.2,0,.3-.3.5-.6.8-.9,2.9-3.6,4.8-8,5.6-12.6.4-2.5.4-4.9-.4-7.3-1.1-3.3-3.6-5.5-7.3-5.2-.9,0-1.3.3-1.6,1.3h0s.2,0,.2,0c2.9,0,4.9,1.5,6.1,4.2,1,2.3,1.1,4.8.8,7.3-.4,3-1.4,5.9-2.9,8.6" vector-effect="non-scaling-stroke"/>
    <path class="st1" d="M24.5,17.1c0,0,0,0,0-.1,0,0,0-.2,0-.2-.4-1.1-1.1-2-2-2.8-.3-.2-.8-.3-.8-.7,0-.3.3-.7.4-1.1,0-.2.2-.3.4-.2,1.3.5,2.3,1.3,3,2.4,1.3,2,1.6,4.2,1.5,6.5,0,.3,0,.5,0,.7.4,1.2.7,2.4.8,3.7.2-.1.2-.3.2-.4.3-1,.6-2.1.7-3.2.3-2.3.2-4.6-.6-6.8-.8-2.1-2.2-3.7-4.5-4.2-.8-.2-.8-.2-1.3.5-1.4,2.1-2.6,4.4-3.7,6.8-1.4,3.1-2.3,6.3-2.8,9.7,0,.3,0,.3.3.3.3,0,.6,0,1,0,.3,0,.4-.1.5-.4.3-1.9.8-3.8,1.4-5.7.5-1.5,1.2-3,1.5-4.6.1-.8.4-1.5.6-2.3,0-.3.2-.4.5-.2,1.1.6,2.1,1.4,2.9,2.4M48.8,21.5c-3.5,8.5-8.2,16-15.8,21.2.6.2,1.1.4,1.7.7.2,0,.4,0,.6,0,1.5-1,2.9-2.2,4.3-3.5,3.9-3.8,6.9-8.2,9.4-12.9,0-.2.1-.3.1-.5,0-1.6-.1-3.2-.3-4.8M37.2,44.2c.7.3,1.3.5,1.9.7.3.1.5,0,.8-.1,2.8-2,5.2-4.4,7.4-7,.1-.2.2-.4.3-.6.5-1.5.9-3.1,1.2-4.6,0-.2,0-.4,0-.6-3.2,4.7-6.7,9-11.5,12.2M22.2,8.5c-1.1.7-2.2,1.6-3.2,2.5-2.8,2.8-4.9,6.1-6.4,9.7-.9,2.2-1.5,4.5-1.8,6.9,0,.1,0,.4,0,.4.3,0,.7,0,1,0,.2,0,.2-.3.2-.5.2-1.4.5-2.7.9-4,1.2-4.2,3.2-7.9,5.9-11.3,1.1-1.3,2.2-2.5,3.4-3.6" vector-effect="non-scaling-stroke"/>
    <path class="st1" d="M17.8,11.7h0c-.5.2-1,.5-1.4.9-4.1,3.8-6.7,8.9-7.5,14.4-.1.9-.1.9.7.9.2,0,.3,0,.3-.3,0-.3,0-.5,0-.8.8-5.2,3.1-10,6.7-13.8.4-.5.9-.9,1.3-1.3" vector-effect="non-scaling-stroke"/>
  </g>
  <path class="st0" d="M69.6,39.5h-7.2V14h6.4l.6,9.6-.3-1.9c.2-1.4.5-2.7,1-4,.5-1.3,1.3-2.3,2.3-3.1,1-.8,2.4-1.2,4.2-1.2s3.6.6,4.9,1.8c1.3,1.2,2.1,3.1,2.4,5.7v1.2c0,0,0,17.4,0,17.4h-7.2v-14.2c0-1.6-.1-2.9-.4-3.7-.3-.9-.6-1.4-1.1-1.7-.5-.3-1-.5-1.6-.5-1,0-1.8.3-2.5.9-.7.6-1.2,1.4-1.6,2.2v17ZM98.4,39.5h-7.2v-14.2c0-1.6-.1-2.9-.4-3.7-.3-.9-.6-1.4-1.1-1.7-.5-.3-1-.5-1.6-.5-1,0-1.8.3-2.5.9-.7.6-1.2,1.4-1.6,2.2l-.2,1v-1.8c0-1.3.3-2.6.8-3.9.5-1.3,1.2-2.3,2.2-3.2,1-.8,2.4-1.3,4.1-1.3s4,.8,5.4,2.3c1.4,1.5,2.1,3.8,2.1,6.9v16.9ZM111.4,39.5h-7.1V14h7.1v25.6ZM107.8,11c-1.2,0-2.2-.4-3.1-1.3-.8-.8-1.3-1.9-1.3-3.3s.4-2.4,1.3-3.2c.8-.8,1.9-1.3,3.1-1.3s2.2.4,3,1.3c.8.8,1.3,1.9,1.3,3.2s-.4,2.4-1.3,3.3c-.8.9-1.9,1.3-3,1.3M123.1,39.5h-8.1l8.5-15.2v5.4c0,0-8.4-15.7-8.4-15.7h7.9l2.6,5.6,1.4,3.7,1.3-3.7,2.5-5.7h7.9l-8.5,15.7v-5.4l8.6,15.3h-8.1l-2.4-5.3-1.6-3.7-1.3,3.7-2.3,5.3ZM152.9,40c-2.6,0-4.8-.6-6.6-1.7-1.8-1.1-3.1-2.7-4-4.7-.9-2-1.3-4.3-1.3-7s.5-5.1,1.4-7c.9-2,2.3-3.5,4.1-4.5,1.8-1.1,3.9-1.6,6.4-1.6s4.5.4,6.1,1.3c1.6.9,2.8,2,3.6,3.5.8,1.5,1.1,3.2,1,5.1h-6.9c0-.7-.1-1.3-.3-1.9s-.4-1-.7-1.3c-.3-.3-.7-.6-1.2-.8-.5-.2-1-.2-1.6-.2-1.6,0-2.8.6-3.6,1.8-.8,1.2-1.2,3-1.2,5.5s.4,4.6,1.3,5.8c.9,1.2,2.1,1.8,3.7,1.9.6,0,1.2,0,1.8-.3.6-.2,1-.6,1.4-1.2.4-.6.5-1.3.5-2.2h6.8c0,1.9-.3,3.6-1.2,5-.8,1.4-2,2.5-3.6,3.3-1.6.8-3.5,1.2-5.8,1.2M173.9,39.8c-1.4,0-2.7-.3-3.9-.8-1.2-.5-2.1-1.3-2.7-2.4s-1-2.4-1-3.9.3-2.8.9-3.8,1.5-1.8,2.5-2.4c1.1-.6,2.3-1,3.6-1.3.9-.2,1.8-.3,2.8-.5,1-.1,1.9-.2,2.7-.3.9,0,1.6-.1,2.2-.2v-.7c0-1.6-.3-2.8-.8-3.4-.5-.7-1.5-1-2.8-1s-1.6.1-2.1.4c-.6.2-1,.7-1.3,1.3-.3.6-.4,1.5-.4,2.6h-6.8c-.2-2.3.2-4.1,1-5.6s2.2-2.5,3.8-3.3,3.7-1.1,5.9-1.1,2.6.1,3.8.4c1.2.3,2.4.8,3.3,1.5,1,.7,1.8,1.6,2.3,2.8s.9,2.7.9,4.6v16.7h-7.1v-6c-.2,1.7-.9,3.2-2,4.4-1.1,1.2-2.8,1.8-5.1,1.8M176.3,35c.8,0,1.5-.1,2.2-.4.7-.3,1.3-.7,1.7-1.2s.8-1.1.9-1.7v-4c-.6,0-1.2.2-1.9.3-.6.1-1.2.2-1.7.3-1.5.3-2.6.8-3.2,1.4-.6.6-.9,1.4-.9,2.4s.1,1.1.3,1.6c.2.4.5.8.9,1,.4.2.9.3,1.5.3M201,39.5h-7.2V14h6.4l.6,10-.4-1.5c.1-1.3.4-2.6.8-3.7s.8-2.1,1.4-2.8c.6-.8,1.3-1.4,2.1-1.9s1.8-.7,2.8-.7.6,0,.9,0c.3,0,.6,0,.8.2v7.6c-.5-.1-1-.2-1.5-.3-.5,0-1,0-1.4,0-.8,0-1.6,0-2.3.2-.7.2-1.3.4-1.8.7-.5.3-.9.7-1.3,1.2v16.5Z"/>
</svg>