<?xml version="1.0" encoding="UTF-8"?>
<svg id="Layer_1" xmlns="http://www.w3.org/2000/svg" version="1.1" viewBox="0 0 56 38">
  <!-- Generator: Adobe Illustrator 29.1.0, SVG Export Plug-In . SVG Version: 2.1.0 Build 142)  -->
  <defs>
    <style>
      .st0 {
        fill: #347489;
        fill-rule: evenodd;
      }
    </style>
  </defs>
  <path class="st0" d="M26,4.3h0s0,0,0,0h0s0,0,0,0c0,0,0,0,0,0h0s0,0,0,0h0s0,0,0,0h0s0,0,0,0h0s0,0,0,0h0s0,0,0,0h0s-.3.2-.3.2h.2ZM26.1,4.1c.2,0,.2-.1.3-.2h0s0,0,0,0l-.4.2ZM32.1,28.3c4.1-5,6.7-10.6,7.2-17.1.2-1.9,0-3.9-.7-5.7-.2-.6-.4-1.2-.9-1.7-.6-.5-1.2-.9-1.9-1.3-1.4-.8-3.1-1.1-4.7-.9-1.6.2-3,.9-4.3,1.8h0s0,0,0,.1c0,0,.1,0,.2,0,1-.5,1.9-.8,3-1,2.2-.3,4,.3,5.4,2.1,1.2,1.5,1.6,3.3,1.8,5.1.2,1.9,0,3.8-.4,5.7-1.6,6.9-5,12.7-11,16.7,0,0,0,0,0,0,.3.1.7.3,1,.4.2,0,.4,0,.6,0,1.9-1.1,3.5-2.6,4.9-4.3" vector-effect="non-scaling-stroke"/>
  <path class="st0" d="M29.3,27.4c3.4-4.2,5.5-8.9,5.8-14.4.1-2.2-.1-4.3-1.2-6.2-1-1.8-2.6-2.8-4.7-2.9-1.3,0-2.4.3-3.6.8,0-.3-.2-.2-.3,0-1.7,1.2-3.2,2.7-4.5,4.4-2.2,2.8-3.8,6-4.8,9.5-.4,1.2-.6,2.5-.8,3.8,0,.2,0,.3.2.3.9,0,.9,0,1-.9v-.3c.8-4.1,2.4-8.1,4.7-11.5,1.1-1.7,2.4-3.3,3.8-4.6.1.1,0,.2,0,.3,0,0,0,0,0,0h.3c1.1-.4,2.2-.5,3.4-.2,2,.5,3.2,1.9,3.9,3.8.8,2.2.8,4.5.5,6.8-.5,3.2-1.7,6.3-3.4,9-1.7,2.6-3.7,4.8-6.4,6.3,0,0,0,0,0,.1h0c.2.1.5.2.7.3.3.1.5,0,.8,0,1.8-1.1,3.4-2.5,4.7-4.1M35.5,28.9c3.6-4.3,6.2-9.4,7.7-14.9.2-.5.2-1.1,0-1.7-.4-1.2-.9-2.3-1.5-3.4,0,1.1-.2,2.3-.3,3.4-.7,4-2.1,7.8-4.1,11.3-1.7,3-3.8,5.7-6.4,8-.8.6-1.6,1.2-2.4,1.7.4.2.8.3,1.2.5.2.1.4,0,.6,0,2-1.3,3.8-2.9,5.4-4.8" vector-effect="non-scaling-stroke"/>
  <path class="st0" d="M27.2,23.7c0,0-.1.2-.1.3-.2,1.2-.6,2.4-1.1,3.5,0,0,.1,0,.1,0,.2-.2.4-.5.6-.7,2.4-2.9,3.9-6.5,4.5-10.2.3-2,.3-4-.3-5.9-.9-2.7-2.9-4.5-5.9-4.3-.8,0-1,.3-1.3,1.1h0s.2,0,.2,0c2.4,0,4,1.2,5,3.4.8,1.9.9,3.9.7,6-.3,2.5-1.1,4.8-2.3,7" vector-effect="non-scaling-stroke"/>
  <path class="st0" d="M24.4,13.7s0,0,0-.1c0,0,0-.1,0-.2-.3-.9-.9-1.6-1.6-2.2-.2-.2-.7-.3-.7-.6,0-.3.2-.6.3-.9,0-.2.1-.2.3-.1,1,.4,1.8,1,2.4,1.9,1,1.6,1.3,3.4,1.2,5.3,0,.2,0,.4,0,.6.3,1,.6,2,.7,3,.2,0,.2-.2.2-.4.3-.9.5-1.7.6-2.6.2-1.9.2-3.7-.5-5.5-.7-1.7-1.8-3-3.6-3.4-.7-.2-.6-.2-1,.4-1.2,1.7-2.1,3.6-3,5.5-1.1,2.5-1.9,5.2-2.3,7.9,0,.2,0,.3.2.3.3,0,.5,0,.8,0,.3,0,.3-.1.4-.3.3-1.6.7-3.1,1.1-4.6.4-1.3,1-2.4,1.2-3.7.1-.6.3-1.3.5-1.9,0-.3.2-.3.4-.2.9.5,1.7,1.2,2.3,1.9M44.2,17.2c-2.9,6.9-6.6,13-12.8,17.2.5.2.9.3,1.4.5.2,0,.3,0,.5,0,1.2-.8,2.4-1.8,3.5-2.8,3.1-3.1,5.6-6.6,7.7-10.5,0-.1.1-.3.1-.4,0-1.3,0-2.6-.3-3.9M34.7,35.7c.6.2,1,.4,1.5.6.2.1.4,0,.6,0,2.3-1.6,4.2-3.6,6-5.7.1-.1.2-.3.2-.5.4-1.2.7-2.5,1-3.8,0-.1,0-.3,0-.5-2.6,3.8-5.5,7.3-9.3,9.9M22.5,6.7c-.9.6-1.8,1.3-2.6,2-2.2,2.2-4,4.9-5.2,7.9-.7,1.8-1.2,3.7-1.5,5.6,0,.1,0,.3,0,.3.3,0,.5,0,.8,0,.2,0,.1-.3.2-.4.1-1.1.4-2.2.7-3.3,1-3.4,2.6-6.4,4.8-9.2.9-1.1,1.8-2,2.8-2.9" vector-effect="non-scaling-stroke"/>
  <path class="st0" d="M19,9.3h0c-.4.1-.8.4-1.2.8-3.3,3.1-5.5,7.2-6.1,11.7-.1.7-.1.7.5.7.2,0,.3,0,.3-.3,0-.2,0-.4,0-.6.7-4.2,2.6-8.1,5.4-11.2.3-.4.7-.7,1.1-1.1" vector-effect="non-scaling-stroke"/>
</svg>