<?xml version="1.0" encoding="UTF-8"?>
<svg id="Layer_1" xmlns="http://www.w3.org/2000/svg" version="1.1" viewBox="0 0 44 44">
  <!-- Generator: Adobe Illustrator 29.1.0, SVG Export Plug-In . SVG Version: 2.1.0 Build 142)  -->
  <defs>
    <style>
      .st0 {
        fill: #d1291a;
      }
    </style>
  </defs>
  <path class="st0" d="M26.1,25.8h-1.3c-.3,0-.5-.1-.7-.4l-1.8-3-1.2-2.1h0s0,0,0,0c0,0,0,0,0,0,0,0,0,0,0,0-.2-.2-.4-.4-.7-.4,0,0,0,0,0,0,0,0,0,0,0,0h0s0,0,0,0h-.2s0,0,0,0h0s0,0,0,0c0,0,0,0,0,0-.3,0-.5.2-.7.4,0,0,0,0,0,0,0,0,0,0,0,0,0,0,0,0,0,0h0s-1.2,2.1-1.2,2.1l-1.8,3c-.1.2-.4.4-.7.4h-1.3l.6-1,3.1-5.3c.5-.8,1.3-1.3,2.1-1.3h.4c.8,0,1.6.5,2.1,1.3l3.1,5.3.6,1h0Z"/>
  <path class="st0" d="M12.8,22c.2-.2.4-.5.4-.8,0-.2.1-.5.1-.8s0-.5-.1-.8c0-.3-.3-.5-.5-.8,0,0-.1-.1-.2-.2-.2-.2-.5-.4-.8-.4-.2,0-.5-.1-.8-.1H2.7v.8c0,.4.3.8.8.8h7.7c.4,0,.8.3.8.8s-.3.8-.8.8H3.4c-.4,0-.8.3-.8.8v3c0,.4.3.8.8.8h7.7c.3,0,.5,0,.8-.1.3,0,.5-.3.8-.5,0,0,.1-.1.2-.2.2-.2.4-.5.4-.8,0-.2.1-.5.1-.8s0-.5-.1-.8c0-.3-.3-.5-.4-.8M11.1,24.3h-6.9v-1.5h6.9c.4,0,.8.3.8.8s-.3.8-.8.8"/>
  <path class="st0" d="M28.3,18.2c-.4,0-.8.3-.8.8v6.8h.8c.4,0,.8-.3.8-.8v-6.8h-.8Z"/>
  <path class="st0" d="M41.3,18.2v.8c0,.4-.3.8-.8.8h-6.2c-.7,0-1.3.3-1.7.8-.2.2-.4.5-.5.8,0,.2-.1.5-.1.8s0,.5.1.8c0,.3.3.5.5.8.4.5,1,.8,1.7.8h6.9v.8c0,.4-.3.8-.8.8h-6.2c-.9,0-1.6-.3-2.3-.8-.3-.2-.5-.5-.8-.8-.2-.2-.3-.5-.4-.8-.1-.2-.2-.5-.2-.8,0-.2,0-.5,0-.8s0-.5,0-.8c0-.3.1-.5.2-.8.1-.3.3-.5.4-.8.2-.3.5-.5.8-.8.6-.5,1.4-.8,2.3-.8h6.9Z"/>
</svg>