<?xml version="1.0" encoding="UTF-8"?>
<svg id="Layer_1" xmlns="http://www.w3.org/2000/svg" version="1.1" viewBox="0 0 36 36">
  <!-- Generator: Adobe Illustrator 29.1.0, SVG Export Plug-In . SVG Version: 2.1.0 Build 142)  -->
  <defs>
    <style>
      .st0 {
        fill: #00b1f7;
      }
    </style>
  </defs>
  <path d="M32.6,18.4h-5.9c-.1,0-.3,0-.4-.1,0,0-.2-.2-.2-.4s0-.3.2-.4c0,0,.2-.1.4-.1h5.9c.6,0,1.2-.2,1.6-.6.4-.4.7-1,.7-1.6v-.3c0-.6-.2-1.1-.7-1.6-.4-.4-1-.6-1.6-.6h-10.5c0,0-.2,0-.2,0,0,0-.1,0-.2-.2,0,0,0-.1,0-.2,0,0,0-.2,0-.2l.8-2.7c.1-.4.2-.9.2-1.3v-2.1c0-.6-.1-1.2-.4-1.8-.3-.6-.6-1.1-1.1-1.5-.8-.8-2-1.2-3.1-1.1v2.6c0,1.1-.2,2.2-.7,3.2-.4,1-1.1,2-1.9,2.7-1.6,1.6-3.8,3.9-4.7,5.7-.3.6-.7,1.1-1.3,1.4-.6.3-1.2.5-1.8.5h-.5c-.1,0-.3,0-.4-.1,0,0-.2-.2-.2-.4s0-.3.2-.4c0,0,.2-.1.4-.1h.5c.5,0,.9-.1,1.3-.4.4-.2.7-.6.9-1,1-1.9,3.2-4.3,4.9-5.9.7-.7,1.3-1.5,1.7-2.4.4-.9.6-1.9.6-2.9V.9c0-.1,0-.2.1-.3,0,0,.2-.2.3-.2h.1c.8,0,1.5,0,2.3.2.7.2,1.4.6,2,1.1.6.5,1,1.1,1.4,1.8.3.7.5,1.5.5,2.2v2.1c0,.6,0,1.1-.2,1.6l-.6,2.1h9.8c.9,0,1.7.3,2.3.9.6.6,1,1.4,1,2.3v.3c0,.9-.3,1.7-1,2.3-.6.6-1.4.9-2.3.9Z"/>
  <path d="M31.3,23.8h-5.6c-.1,0-.3,0-.4-.1,0,0-.2-.2-.2-.4s0-.3.2-.4c0,0,.2-.1.4-.1h5.6c.6,0,1.2-.2,1.6-.6.4-.4.7-1,.7-1.6s-.2-1.1-.7-1.6-1-.6-1.6-.6h-4.5c-.1,0-.3,0-.4-.1,0,0-.2-.2-.2-.4s0-.3.2-.4c0,0,.2-.1.4-.1h4.5c.9,0,1.7.3,2.3.9.6.6,1,1.4,1,2.3s-.3,1.7-1,2.3c-.6.6-1.4.9-2.3.9Z"/>
  <path d="M30.4,29.3h-6.9c-.1,0-.3,0-.4-.1,0,0-.2-.2-.2-.4s0-.3.2-.4c0,0,.2-.1.4-.1h6.9c.3,0,.6,0,.9-.2.3-.1.5-.3.7-.5.2-.2.4-.4.5-.7.1-.3.2-.6.2-.9s0-.6-.2-.9c-.1-.3-.3-.5-.5-.7-.2-.2-.5-.4-.7-.5-.3-.1-.6-.2-.9-.2h-4.7c-.1,0-.3,0-.4-.1,0,0-.2-.2-.2-.4s0-.3.2-.4c0,0,.2-.1.4-.1h4.7c.4,0,.9,0,1.3.2.4.2.8.4,1.1.7.3.3.6.7.7,1,.2.4.3.8.3,1.2s0,.8-.3,1.2-.4.7-.7,1c-.3.3-.7.5-1.1.7-.4.2-.8.2-1.3.2Z"/>
  <path d="M28.2,34.7h-13.5c-1,0-1.9-.2-2.8-.7-.9-.4-1.6-1.1-2.1-1.8h-2.7c-.1,0-.3,0-.4-.1,0,0-.2-.2-.2-.4s0-.3.2-.4c0,0,.2-.1.4-.1h2.9c0,0,.2,0,.2,0,0,0,.1,0,.2.2.4.7,1.1,1.3,1.8,1.7.7.4,1.6.6,2.4.6h13.5c.6,0,1.2-.2,1.6-.6.4-.4.7-1,.7-1.6s-.2-1.1-.7-1.6c-.4-.4-1-.6-1.6-.6h-4.7c-.1,0-.3,0-.4-.1,0,0-.2-.2-.2-.4s0-.3.2-.4c0,0,.2-.1.4-.1h4.7c.4,0,.9,0,1.3.2.4.2.8.4,1.1.7.3.3.5.7.7,1,.2.4.2.8.2,1.2s0,.8-.2,1.2-.4.7-.7,1c-.3.3-.7.5-1.1.7-.4.2-.8.2-1.3.2ZM.4,26.4c-.1,0-.3,0-.4-.1,0,0-.2-.2-.2-.4v-1.5c0-.1,0-.3.2-.4,0,0,.2-.1.4-.1s.3,0,.4.1c0,0,.2.2.2.4v1.5c0,.1,0,.3-.2.4,0,0-.2.1-.4.1Z"/>
  <path class="st0" d="M6.5,34.4H1c-.3,0-.6-.1-.8-.3-.2-.2-.3-.5-.3-.8v-3.7c0-.1,0-.3.2-.4,0,0,.2-.1.4-.1s.3,0,.4.1c0,0,.2.2.2.4v3.7s0,0,0,0c0,0,0,0,0,0h5.5s0,0,0,0c0,0,0,0,0,0,0,0,0,0,0,0,0,0,0,0,0,0V15.2s0,0,0,0c0,0,0,0,0,0,0,0,0,0,0,0,0,0,0,0,0,0H1s0,0,0,0c0,0,0,0,0,0,0,0,0,0,0,0,0,0,0,0,0,0v5.8c0,.1,0,.3-.2.4,0,0-.2.1-.4.1s-.3,0-.4-.1c0,0-.2-.2-.2-.4v-5.8c0-.3.1-.6.3-.8.2-.2.5-.3.8-.3h5.5c.3,0,.6.1.8.3.2.2.3.5.3.8v18c0,.3-.1.6-.3.8-.2.2-.5.3-.8.3Z"/>
</svg>