<?xml version="1.0" encoding="UTF-8"?>
<svg id="Layer_1" xmlns="http://www.w3.org/2000/svg" version="1.1" viewBox="0 0 44 44">
  <!-- Generator: Adobe Illustrator 29.1.0, SVG Export Plug-In . SVG Version: 2.1.0 Build 142)  -->
  <defs>
    <style>
      .st0 {
        fill-rule: evenodd;
      }
    </style>
  </defs>
  <path class="st0" d="M39.1,22.5c.3,0,.5.3.5.5s-.3.5-.6.5h-6v-3.9h-1.8v3.9h-3.2c-.9,0-1.1-.5-1.1-1v-2.9h-2.9c-.3.2-.6.4-.9.6l-1.7,1.1-2.2-1.6h-3.5v1h1.3v-.5l3,2.1-2,1.3h-2.2v1h2.6c.3-.2.5-.4.8-.6l1.8-1.1,2.3,1.6h2.6l-3.4-2.6,1.7-1.1c.4-.2.8-.4,1.1-.7v2.6c0,1.1.3,1.8,2.5,1.8h12.3c1,0,1.6-.7,1.6-1.5s-.7-1.4-1.6-1.4h-4.4c0-.5.5-1,1-1h4.5v-.9h-4.8c-1.5,0-2.7,1.3-2.8,2.7,0,.1,0,.2.2.2h5.4s0,0,0,0Z"/>
  <rect x="15.7" y="21.4" width=".9" height="1"/>
  <path class="st0" d="M15.7,19.6h-3.3c-.9,0-1.6.2-2.1.6-.9.7-1.2,1.5-1.2,1.8h1.2c-.5.4-.9.9-1.1,1.4h-3.9c-.7,0-1.2-.5-1.2-1v-2.9h-1.7v3c0,1.1,1,1.8,2.7,1.8h10.5v-1h-4.2c0-.5.6-1,1-1h3.2v-1h-4.2c0-.3.5-.9.9-.9h3.3v-1h0Z"/>
</svg>