<?xml version="1.0" encoding="UTF-8"?>
<svg id="Layer_1" xmlns="http://www.w3.org/2000/svg" version="1.1" viewBox="0 0 44 44">
  <!-- Generator: Adobe Illustrator 29.1.0, SVG Export Plug-In . SVG Version: 2.1.0 Build 142)  -->
  <defs>
    <style>
      .st0 {
        fill-rule: evenodd;
      }
    </style>
  </defs>
  <path class="st0" d="M2.6,21v-.8h3.3c.1,0,.2,0,.3,0,0,0,.2.1.2.2,0,.1,0,.1.1,0,0,0,.1-.2.2-.2,0,0,.2,0,.3,0h2.6c.2,0,.4,0,.6.2.2.2.2.4.2.6v3h-1.5v-2.7c0,0,0-.2-.1-.3,0,0-.2-.1-.3-.1h-1.1c0,0-.2,0-.3.1,0,0-.1.2-.1.3v2.7h-1.3v-2.7c0,0,0-.2-.1-.3,0,0-.2-.1-.3-.1h-1.1c0,0-.2,0-.3.1,0,0-.1.2-.1.3v2.7h-1.4v-3h0ZM38,21.5h2.3c.3,0,.6.1.8.3.2.2.3.5.3.8v.2c0,.3-.1.6-.3.8-.2.2-.5.3-.8.3h-5.7v-.8h4.8c0,0,.2,0,.2,0,0,0,0-.1,0-.2h0c0-.1,0-.2,0-.3,0,0-.1,0-.2,0h-3.8c-.3,0-.6-.1-.8-.3-.2-.2-.3-.5-.3-.8v-.2c0-.3.1-.6.3-.8.2-.2.5-.3.8-.3h5.7v.8h-4.8c0,0-.2,0-.2,0,0,0,0,.1,0,.2h0c0,.1,0,.2,0,.3s.1,0,.2,0h1.5ZM33,24c.2,0,.4,0,.6-.2.2-.2.2-.4.2-.6v-3h-1.7v2.7c0,0,0,.2-.1.3,0,0-.2.1-.3.1h-3c0,0-.2,0-.3-.1,0,0-.1-.2-.1-.3v-2.7h-1.7v3c0,.2,0,.4.2.6s.4.2.6.2h5.4ZM22.6,21.7l-.5-.5-1.3-1.2h-1.7l2.2,1.9-2.2,1.9h1.7l1.3-1.2.5-.5.5.5,1.3,1.2h1.7l-2.2-1.9,2.2-1.9h-1.7l-1.3,1.2-.5.5h0ZM17.6,20.1c.2,0,.4,0,.6.2.2.2.2.4.2.6v3h-1.7v-1.5h-3.7v1.5h-1.7v-3c0-.2,0-.4.2-.6s.4-.2.6-.2h5.4,0ZM16.8,21.7v-.4s0,0,0-.1c0,0,0,0,0-.1,0,0,0,0-.1,0,0,0,0,0-.1,0h-3c0,0-.2,0-.3.1,0,0-.1.2-.1.3v.4h3.7Z"/>
</svg>