<?xml version="1.0" encoding="UTF-8"?>
<svg id="Layer_1" xmlns="http://www.w3.org/2000/svg" version="1.1" viewBox="0 0 36 36">
  <!-- Generator: Adobe Illustrator 29.1.0, SVG Export Plug-In . SVG Version: 2.1.0 Build 142)  -->
  <defs>
    <style>
      .st0 {
        fill: #00b1f7;
      }

      .st1 {
        fill: #13141a;
      }
    </style>
  </defs>
  <path class="st0" d="M27.3,15.1c0-5.3-4.4-9.7-9.7-9.7S7.8,9.8,7.8,15.1s4.4,9.7,9.7,9.7,9.7-4.3,9.7-9.7ZM17.6,23.5c-4.7,0-8.5-3.8-8.5-8.4s3.8-8.4,8.5-8.4,8.5,3.8,8.5,8.4-3.8,8.4-8.5,8.4Z"/>
  <path class="st1" d="M29.5,25.1c.4-.2.7-.4.9-.7.6-.9.5-2,.3-3.1,0-.7-.2-1.4,0-1.9.1-.5.6-1,1.1-1.5.7-.8,1.6-1.7,1.6-2.8s-.8-2-1.6-2.8c-.5-.5-1-1-1.1-1.5-.2-.5,0-1.2,0-1.9.1-1.1.3-2.2-.3-3.1-.6-.9-1.8-1.1-2.9-1.3-.7-.1-1.4-.3-1.8-.6-.4-.3-.8-.9-1.1-1.6-.5-.9-1.1-2-2.1-2.3-1-.3-2,.2-3,.6-.7.3-1.3.6-1.9.6s-1.2-.3-1.9-.6c-1-.5-2-.9-3-.6-1,.3-1.6,1.4-2.1,2.3-.3.6-.7,1.3-1.1,1.6-.4.3-1.1.4-1.8.6-1.1.2-2.2.4-2.9,1.3-.6.9-.5,2-.3,3.1,0,.7.2,1.4,0,1.9-.1.5-.6,1-1.1,1.5-.7.8-1.6,1.7-1.6,2.8s.8,2,1.6,2.8c.5.5,1,1,1.1,1.5.2.5,0,1.2,0,1.9-.1,1.1-.3,2.2.3,3.1.2.3.6.6.9.7l-3.4,5.9c-.1.2-.1.5,0,.7.2.2.4.3.7.2l5-1.3,1.4,5c0,.2.3.4.5.5,0,0,0,0,0,0,.2,0,.4-.1.5-.3l3.2-5.5c.7,0,1.4-.4,2-.7.7-.3,1.3-.6,1.9-.6s1.2.3,1.9.6c.7.3,1.4.6,2,.7l3.2,5.5c.1.2.3.3.5.3s0,0,0,0c.2,0,.5-.2.5-.5l1.4-5,5,1.3c.2,0,.5,0,.7-.2.2-.2.2-.5,0-.7l-3.4-5.8ZM10.1,33.8l-1.1-4.2c0-.3-.4-.5-.8-.4l-4.2,1.1,2.8-4.8c.2,0,.5.1.7.1.7.1,1.4.3,1.8.6.4.3.8.9,1.1,1.6.5.8,1,1.8,1.8,2.2l-2.2,3.8ZM17.6,27.6c-.8,0-1.6.4-2.4.7-.8.4-1.6.7-2.1.6-.6-.2-1-1-1.4-1.7-.4-.7-.8-1.5-1.5-2-.6-.5-1.5-.6-2.4-.8-.9-.2-1.7-.3-2.1-.8-.3-.5-.2-1.3-.1-2.2.1-.8.2-1.7,0-2.5-.2-.7-.8-1.4-1.4-2-.6-.6-1.2-1.3-1.2-1.9s.6-1.3,1.2-1.9c.6-.6,1.2-1.2,1.4-2,.3-.8.1-1.6,0-2.5-.1-.9-.2-1.7.1-2.2.3-.5,1.2-.6,2.1-.8.8-.2,1.7-.3,2.4-.8.6-.5,1.1-1.2,1.5-2,.4-.8.9-1.6,1.4-1.7.5-.2,1.3.2,2.1.6.8.4,1.6.7,2.4.7s1.6-.4,2.4-.7c.8-.4,1.6-.7,2.1-.6.6.2,1,1,1.4,1.7.4.7.8,1.5,1.5,2,.6.5,1.5.6,2.4.8.9.2,1.7.3,2.1.8.3.5.2,1.3.1,2.2-.1.8-.2,1.7,0,2.5.2.7.8,1.4,1.4,2,.6.6,1.2,1.3,1.2,1.9s-.6,1.3-1.2,1.9c-.6.6-1.2,1.2-1.4,2-.2.8-.1,1.6,0,2.5.1.9.2,1.7-.1,2.2-.3.5-1.2.6-2.1.8-.8.2-1.7.3-2.4.8-.6.5-1.1,1.2-1.5,2-.4.8-.9,1.6-1.4,1.7-.5.2-1.3-.2-2.1-.6-.8-.4-1.6-.7-2.4-.7ZM26.9,29.2c-.3,0-.7.1-.8.4l-1.1,4.2-2.2-3.8c.8-.4,1.3-1.3,1.8-2.2.3-.6.7-1.3,1.1-1.6.4-.3,1.1-.4,1.8-.6.2,0,.5,0,.7-.1l2.8,4.8-4.2-1.1Z"/>
  <path class="st0" d="M23.4,11.3c-.2-.2-.6-.2-.9,0l-6.3,6.3-3.6-3.6c-.2-.2-.6-.2-.9,0-.2.2-.2.6,0,.9l4.1,4c.1.1.3.2.4.2s.3,0,.4-.2l6.8-6.7c.2-.2.2-.6,0-.9Z"/>
</svg>