<?xml version="1.0" encoding="UTF-8"?>
<svg id="Layer_1" xmlns="http://www.w3.org/2000/svg" version="1.1" viewBox="0 0 44 44">
  <!-- Generator: Adobe Illustrator 29.1.0, SVG Export Plug-In . SVG Version: 2.1.0 Build 142)  -->
  <defs>
    <style>
      .st0 {
        fill: #cc2229;
        fill-rule: evenodd;
      }
    </style>
  </defs>
  <path class="st0" d="M22,22c0-1.8,1.5-3.2,3.2-3.2s3.2,1.5,3.2,3.2-1.5,3.2-3.2,3.2-3.2-1.5-3.2-3.2h0ZM25.2,24.1c1,0,1.8-.9,1.8-2.1s-.8-2.1-1.8-2.1-1.8.9-1.8,2.1.8,2.1,1.8,2.1ZM32.1,20.1v5h-1.4v-5h0-1.9v-1.1h5.2v1.1h-1.9ZM35.7,23.7h0s-.5,1.4-.5,1.4h-1.6l2.5-6.1h1.7l2.5,6.1h-1.6l-.5-1.4h0s-2.5,0-2.5,0ZM37,22.7h.9,0s-.9-2.2-.9-2.2h0l-.9,2.2h0s.9,0,.9,0ZM6.9,20.1v5h-1.4v-5h0-1.9v-1.1h5.2v1.1h-1.9ZM9.2,22c0-1.8,1.5-3.2,3.2-3.2s3.2,1.5,3.2,3.2-1.5,3.2-3.2,3.2-3.2-1.5-3.2-3.2ZM12.4,24.1c1,0,1.8-.9,1.8-2.1s-.8-2.1-1.8-2.1-1.8.9-1.8,2.1.8,2.1,1.8,2.1ZM18.8,25.1h.7v-2.3l2.4-3.8h-1.6l-1.5,2.6-1.5-2.6h-1.6l2.4,3.8v2.3h.7,0Z"/>
</svg>