<?xml version="1.0" encoding="UTF-8"?>
<svg id="Layer_1" xmlns="http://www.w3.org/2000/svg" version="1.1" viewBox="0 0 36 36">
  <!-- Generator: Adobe Illustrator 29.1.0, SVG Export Plug-In . SVG Version: 2.1.0 Build 142)  -->
  <defs>
    <style>
      .st0 {
        fill: #00b1f7;
      }

      .st1 {
        fill: #13141a;
      }
    </style>
  </defs>
  <path class="st1" d="M33.4,8.3c0-.3-.3-.5-.6-.5C22.9,7.8,18.1.3,18.1.2s0,0,0,0h0c0,0,0,0,0-.1,0,0,0,0-.1,0h-.2q0,0-.1,0h0c0,0,0,0-.1,0h0c-.2.2-5,7.6-14.9,7.6s-.6.2-.6.5-1,22.8,15.7,27.7h.4c16.7-4.9,15.7-27.5,15.7-27.7ZM2.9,9c8.4-.2,13.2-5.4,14.6-7.3,1.5,1.9,6.2,7.1,14.6,7.3,0,3.4-.4,21.6-14.6,25.9C3.4,30.5,2.9,12.4,2.9,9Z"/>
  <path class="st0" d="M25.5,18.6c0-4.3-3.5-7.8-7.9-7.8s-7.9,3.5-7.9,7.8,3.5,7.8,7.9,7.8,7.9-3.5,7.9-7.8ZM10.9,18.6c0-3.7,3-6.6,6.7-6.6s6.7,2.9,6.7,6.6-3,6.6-6.7,6.6-6.7-2.9-6.7-6.6Z"/>
  <path class="st0" d="M21.5,16.5c-.2-.2-.6-.2-.9,0l-4.4,4.4-2-2c-.2-.2-.6-.2-.9,0-.2.2-.2.6,0,.8l2.4,2.4c.1.1.3.2.4.2s.3,0,.4-.2l4.9-4.8c.2-.2.2-.6,0-.8Z"/>
</svg>